<?xml version="1.0" encoding="utf-8"?><svg version="1.1" id="Layer_1" xmlns="http://www.w3.org/2000/svg" xmlns:xlink="http://www.w3.org/1999/xlink" x="0px" y="0px" viewBox="0 0 122.88 111.57" style="enable-background:new 0 0 122.88 111.57" xml:space="preserve"><style type="text/css"><![CDATA[
	.st0{fill-rule:evenodd;clip-rule:evenodd;}
]]></style><g><path class="st0" d="M89.99,31.35h26.38c3.58,0,6.51,2.93,6.51,6.51v26.67c0,3.58-2.93,6.51-6.51,6.51H89.99 c-10.91,0-19.84-8.93-19.84-19.84l0,0C70.15,40.27,79.07,31.35,89.99,31.35L89.99,31.35L89.99,31.35L89.99,31.35z M3.1,36.74h50.3 c1.7,0,3.1,1.39,3.1,3.1v68.63c0,1.71-1.39,3.1-3.1,3.1H3.1c-1.7,0-3.1-1.39-3.1-3.1V39.84C0,38.14,1.39,36.74,3.1,36.74L3.1,36.74 L3.1,36.74z M31.62,50.01h5.16v4.2h-5.16V50.01L31.62,50.01L31.62,50.01z M40.73,50.01h5.16v4.2h-5.16V50.01L40.73,50.01 L40.73,50.01z M7.31,66.82h8.59c0.73,0,1.34,0.6,1.34,1.34v7.25c0,0.73-0.6,1.34-1.34,1.34H7.31c-0.73,0-1.34-0.6-1.34-1.34v-7.25 C5.97,67.42,6.57,66.82,7.31,66.82L7.31,66.82L7.31,66.82z M40.24,94.27h8.58c0.73,0,1.33,0.6,1.33,1.34v7.25 c0,0.74-0.6,1.34-1.33,1.34h-8.58c-0.73,0-1.34-0.6-1.34-1.34v-7.25C38.9,94.87,39.5,94.27,40.24,94.27L40.24,94.27L40.24,94.27z M23.78,94.27h8.59c0.73,0,1.34,0.6,1.34,1.34v7.25c0,0.74-0.6,1.34-1.34,1.34h-8.59c-0.73,0-1.34-0.6-1.34-1.34v-7.25 C22.44,94.87,23.04,94.27,23.78,94.27L23.78,94.27L23.78,94.27z M7.31,94.27h8.59c0.73,0,1.34,0.6,1.34,1.34v7.25 c0,0.74-0.6,1.34-1.34,1.34H7.31c-0.73,0-1.34-0.6-1.34-1.34v-7.25C5.97,94.87,6.57,94.27,7.31,94.27L7.31,94.27L7.31,94.27 L7.31,94.27z M40.24,80.54h8.58c0.73,0,1.33,0.6,1.33,1.34v7.25c0,0.73-0.6,1.34-1.33,1.34h-8.58c-0.73,0-1.34-0.6-1.34-1.34v-7.25 C38.9,81.14,39.5,80.54,40.24,80.54L40.24,80.54L40.24,80.54z M23.78,80.54h8.59c0.73,0,1.34,0.6,1.34,1.34v7.25 c0,0.73-0.6,1.34-1.34,1.34h-8.59c-0.73,0-1.34-0.6-1.34-1.34v-7.25C22.44,81.14,23.04,80.54,23.78,80.54L23.78,80.54L23.78,80.54z M7.31,80.54h8.59c0.73,0,1.34,0.6,1.34,1.34v7.25c0,0.73-0.6,1.34-1.34,1.34H7.31c-0.73,0-1.34-0.6-1.34-1.34v-7.25 C5.97,81.14,6.57,80.54,7.31,80.54L7.31,80.54L7.31,80.54z M40.24,66.82h8.58c0.73,0,1.33,0.6,1.33,1.34v7.25 c0,0.73-0.6,1.34-1.33,1.34h-8.58c-0.73,0-1.34-0.6-1.34-1.34v-7.25C38.9,67.42,39.5,66.82,40.24,66.82L40.24,66.82L40.24,66.82z M23.78,66.82h8.59c0.73,0,1.34,0.6,1.34,1.34v7.25c0,0.73-0.6,1.34-1.34,1.34h-8.59c-0.73,0-1.34-0.6-1.34-1.34v-7.25 C22.44,67.42,23.04,66.82,23.78,66.82L23.78,66.82L23.78,66.82z M6.61,43.07h42.65c0.56,0,1.02,0.46,1.02,1.02V58.1 c0,0.56-0.45,1.02-1.02,1.02H6.61c-0.56,0-1.02-0.46-1.02-1.02V44.09C5.59,43.53,6.05,43.07,6.61,43.07L6.61,43.07L6.61,43.07z M27.59,0.02h16.84l46.99-0.01L97.61,0c6.33-0.01,11.5,4.95,11.5,11.27v1.88c3.12,2.06,5.19,5.6,5.19,9.6v4.15h-7.3v-2.77 c0-2.98-2.44-5.4-5.4-5.4h-67.2v-6.02c0-0.8,0.66-1.46,1.46-1.46c22.3,0,44.62-0.01,66.94-0.01c0.42,0,0.83,0.02,1.24,0.07v-0.28 c0-2.09-1.71-3.8-3.79-3.8c-23.66,0-47.33,0.01-71,0.01c-2.09,0-3.8,1.71-3.8,3.79V26h-8.28V10.46 C17.14,4.72,21.84,0.02,27.59,0.02L27.59,0.02L27.59,0.02L27.59,0.02z M66.21,83.93h36.91c2.09,0,3.8-1.71,3.8-3.8v-4.35h7.49v7.18 h-0.02c-0.03,4.96-5.33,8.97-10.56,8.97H66.21V83.93L66.21,83.93z M90.99,38.62h23.41v25.15H90.99c-6.92,0-12.57-5.66-12.57-12.58 l0,0C78.41,44.27,84.07,38.62,90.99,38.62L90.99,38.62L90.99,38.62L90.99,38.62z M96.74,47.03c2.37,0,4.29,1.92,4.29,4.29 c0,2.37-1.92,4.29-4.29,4.29c-2.37,0-4.29-1.92-4.29-4.29C92.45,48.95,94.37,47.03,96.74,47.03L96.74,47.03L96.74,47.03 L96.74,47.03z"/></g></svg>