<svg width="113" height="129" viewBox="0 0 113 129" fill="none" xmlns="http://www.w3.org/2000/svg">
<path d="M49.7845 0C48.821 0 48.1786 0.642381 47.6968 1.44536L0.481786 110.811C0.160595 111.614 0 112.898 0 113.862V126.87C0 127.673 0.642381 128.316 1.44536 128.316H110.811C111.614 128.316 112.256 127.673 112.256 126.87V113.862C112.256 113.059 112.095 111.614 111.774 110.811L64.5593 1.44536C64.2381 0.642381 63.4351 0 62.4716 0H49.4633L49.7845 0ZM48.3392 48.1786H64.3987V80.2976H48.3392V48.1786ZM48.3392 96.3571H64.3987V112.417H48.3392V96.3571Z" fill="#E11F1F"/>
</svg>
