<svg width="781" height="583" viewBox="0 0 781 583" fill="none" xmlns="http://www.w3.org/2000/svg">
<g clip-path="url(#clip0_57_398)">
<path d="M781 380.893L762.397 379.572C743.74 378.328 706.534 375.685 669.382 381.515C632.23 387.345 595.133 401.648 557.981 401.881C520.829 402.115 483.623 388.433 446.363 384.158C409.103 379.883 371.897 385.013 334.637 385.791C297.377 386.568 260.171 382.992 223.019 389.599C185.867 396.207 148.77 412.997 111.618 414.941C74.4662 416.884 37.2602 403.98 18.603 397.451L-4.19617e-05 390.999V-0.777334H18.603C37.2602 -0.777334 74.4662 -0.777334 111.618 -0.777334C148.77 -0.777334 185.867 -0.777334 223.019 -0.777334C260.171 -0.777334 297.377 -0.777334 334.637 -0.777334C371.897 -0.777334 409.103 -0.777334 446.363 -0.777334C483.623 -0.777334 520.829 -0.777334 557.981 -0.777334C595.133 -0.777334 632.23 -0.777334 669.382 -0.777334C706.534 -0.777334 743.74 -0.777334 762.397 -0.777334H781V380.893Z" fill="#291BC5"/>
<path d="M781 366.901L762.397 369.622C743.74 372.343 706.534 377.784 669.382 372.731C632.23 367.679 595.133 352.132 557.981 345.68C520.829 339.151 483.623 341.793 446.363 349.645C409.103 357.573 371.897 370.788 334.637 379.883C297.377 388.9 260.171 393.875 223.019 393.953C185.867 394.108 148.77 389.444 111.618 385.402C74.4662 381.437 37.2602 378.017 18.603 376.385L-1.44839e-05 374.675V-0.777359H18.603C37.2602 -0.777359 74.4662 -0.777359 111.618 -0.777359C148.77 -0.777359 185.867 -0.777359 223.019 -0.777359C260.171 -0.777359 297.377 -0.777359 334.637 -0.777359C371.897 -0.777359 409.103 -0.777359 446.363 -0.777359C483.623 -0.777359 520.829 -0.777359 557.981 -0.777359C595.133 -0.777359 632.23 -0.777359 669.382 -0.777359C706.534 -0.777359 743.74 -0.777359 762.397 -0.777359H781V366.901Z" fill="#1F30CD"/>
<path d="M781 334.253L762.397 338.762C743.74 343.348 706.534 352.365 669.382 343.037C632.23 333.709 595.133 306.036 557.981 291.889C520.829 277.741 483.623 277.275 446.363 277.508C409.103 277.741 371.897 278.83 334.637 282.794C297.377 286.836 260.171 293.832 223.019 293.599C185.867 293.288 148.77 285.826 111.618 282.328C74.4662 278.83 37.2602 279.296 18.603 279.607L-4.19617e-05 279.84V-0.777277H18.603C37.2602 -0.777277 74.4662 -0.777277 111.618 -0.777277C148.77 -0.777277 185.867 -0.777277 223.019 -0.777277C260.171 -0.777277 297.377 -0.777277 334.637 -0.777277C371.897 -0.777277 409.103 -0.777277 446.363 -0.777277C483.623 -0.777277 520.829 -0.777277 557.981 -0.777277C595.133 -0.777277 632.23 -0.777277 669.382 -0.777277C706.534 -0.777277 743.74 -0.777277 762.397 -0.777277H781V334.253Z" fill="#1741D4"/>
<path d="M781 237.087L762.397 234.91C743.74 232.656 706.534 228.303 669.382 226.593C632.23 224.883 595.133 225.971 557.981 229.158C520.829 232.423 483.623 237.864 446.363 238.408C409.103 238.875 371.897 234.521 334.637 234.211C297.377 233.977 260.171 237.864 223.019 236.154C185.867 234.521 148.77 227.215 111.618 231.412C74.4662 235.532 37.2602 251.079 18.603 258.852L-4.19617e-05 266.625V-0.777316H18.603C37.2602 -0.777316 74.4662 -0.777316 111.618 -0.777316C148.77 -0.777316 185.867 -0.777316 223.019 -0.777316C260.171 -0.777316 297.377 -0.777316 334.637 -0.777316C371.897 -0.777316 409.103 -0.777316 446.363 -0.777316C483.623 -0.777316 520.829 -0.777316 557.981 -0.777316C595.133 -0.777316 632.23 -0.777316 669.382 -0.777316C706.534 -0.777316 743.74 -0.777316 762.397 -0.777316H781V237.087Z" fill="#175DDE"/>
<path d="M781 214.544L762.397 210.502C743.74 206.537 706.534 198.453 669.382 193.556C632.23 188.659 595.133 186.793 557.981 188.348C520.829 189.902 483.623 194.877 446.363 192.545C409.103 190.213 371.897 180.574 334.637 178.942C297.377 177.232 260.171 183.451 223.019 191.068C185.867 198.764 148.77 207.781 111.618 206.771C74.4662 205.76 37.2602 194.566 18.603 189.047L-4.19617e-05 183.451V-0.777368H18.603C37.2602 -0.777368 74.4662 -0.777368 111.618 -0.777368C148.77 -0.777368 185.867 -0.777368 223.019 -0.777368C260.171 -0.777368 297.377 -0.777368 334.637 -0.777368C371.897 -0.777368 409.103 -0.777368 446.363 -0.777368C483.623 -0.777368 520.829 -0.777368 557.981 -0.777368C595.133 -0.777368 632.23 -0.777368 669.382 -0.777368C706.534 -0.777368 743.74 -0.777368 762.397 -0.777368H781V214.544Z" fill="#2269E2"/>
<path d="M781 239.419L762.397 245.482C743.74 251.623 706.534 263.749 669.382 269.579C632.23 275.409 595.133 274.943 557.981 276.109C520.829 277.275 483.623 280.073 446.363 277.741C409.103 275.409 371.897 267.947 334.637 268.025C297.377 268.18 260.171 275.953 223.019 281.161C185.867 286.292 148.77 288.935 111.618 283.183C74.4662 277.508 37.2602 263.516 18.603 256.52L-1.44839e-05 249.524V-0.777294H18.603C37.2602 -0.777294 74.4662 -0.777294 111.618 -0.777294C148.77 -0.777294 185.867 -0.777294 223.019 -0.777294C260.171 -0.777294 297.377 -0.777294 334.637 -0.777294C371.897 -0.777294 409.103 -0.777294 446.363 -0.777294C483.623 -0.777294 520.829 -0.777294 557.981 -0.777294C595.133 -0.777294 632.23 -0.777294 669.382 -0.777294C706.534 -0.777294 743.74 -0.777294 762.397 -0.777294H781V239.419Z" fill="#134FD9"/>
<path d="M781 142.252L762.397 150.259C743.74 158.343 706.534 174.356 669.382 181.507C632.23 188.659 595.133 186.793 557.981 178.554C520.829 170.236 483.623 155.467 446.363 155.467C409.103 155.467 371.897 170.236 334.637 170.392C297.377 170.469 260.171 156.011 223.019 151.191C185.867 146.372 148.77 151.347 111.618 156.4C74.4662 161.452 37.2602 166.583 18.603 169.226L-4.19617e-05 171.791V-0.777303H18.603C37.2602 -0.777303 74.4662 -0.777303 111.618 -0.777303C148.77 -0.777303 185.867 -0.777303 223.019 -0.777303C260.171 -0.777303 297.377 -0.777303 334.637 -0.777303C371.897 -0.777303 409.103 -0.777303 446.363 -0.777303C483.623 -0.777303 520.829 -0.777303 557.981 -0.777303C595.133 -0.777303 632.23 -0.777303 669.382 -0.777303C706.534 -0.777303 743.74 -0.777303 762.397 -0.777303H781V142.252Z" fill="#2F75E5"/>
<path d="M781 99.4987H762.397C743.74 99.4987 706.534 99.4986 669.382 94.6792C632.23 89.9374 595.133 80.2985 557.981 81.7755C520.829 83.1747 483.623 95.612 446.363 96.778C409.103 97.944 371.897 87.8387 334.637 81.3868C297.377 74.8572 260.171 72.0588 223.019 74.3908C185.867 76.7228 148.77 84.1852 111.618 85.3512C74.4662 86.5172 37.2602 81.3868 18.603 78.7438L-4.19617e-05 76.1787V-0.777341H18.603C37.2602 -0.777341 74.4662 -0.777341 111.618 -0.777341C148.77 -0.777341 185.867 -0.777341 223.019 -0.777341C260.171 -0.777341 297.377 -0.777341 334.637 -0.777341C371.897 -0.777341 409.103 -0.777341 446.363 -0.777341C483.623 -0.777341 520.829 -0.777341 557.981 -0.777341C595.133 -0.777341 632.23 -0.777341 669.382 -0.777341C706.534 -0.777341 743.74 -0.777341 762.397 -0.777341H781V99.4987Z" fill="#4D8DE8"/>
<path d="M781 136.811L762.397 131.758C743.74 126.705 706.534 116.6 669.382 110.925C632.23 105.173 595.133 103.929 557.981 105.873C520.829 107.816 483.623 112.947 446.363 120.72C409.103 128.493 371.897 138.909 334.637 136.422C297.377 133.935 260.171 118.699 223.019 110.77C185.867 102.841 148.77 102.375 111.618 101.986C74.4662 101.597 37.2602 101.287 18.603 101.209L-4.19617e-05 101.053V-0.777329H18.603C37.2602 -0.777329 74.4662 -0.777329 111.618 -0.777329C148.77 -0.777329 185.867 -0.777329 223.019 -0.777329C260.171 -0.777329 297.377 -0.777329 334.637 -0.777329C371.897 -0.777329 409.103 -0.777329 446.363 -0.777329C483.623 -0.777329 520.829 -0.777329 557.981 -0.777329C595.133 -0.777329 632.23 -0.777329 669.382 -0.777329C706.534 -0.777329 743.74 -0.777329 762.397 -0.777329H781V136.811Z" fill="#3E81E7"/>
<path d="M781 46.64L762.397 47.6506C743.74 48.7388 706.534 50.7599 669.382 50.5267C632.23 50.2935 595.133 47.6506 557.981 48.7388C520.829 49.7494 483.623 54.4134 446.363 57.6782C409.103 60.8652 371.897 62.7308 334.637 58.3C297.377 53.8692 260.171 43.2975 223.019 39.8772C185.867 36.5347 148.77 40.4214 111.618 43.6862C74.4662 46.8732 37.2602 49.5162 18.603 50.7599L-4.19617e-05 52.0814V-0.777311H18.603C37.2602 -0.777311 74.4662 -0.777311 111.618 -0.777311C148.77 -0.777311 185.867 -0.777311 223.019 -0.777311C260.171 -0.777311 297.377 -0.777311 334.637 -0.777311C371.897 -0.777311 409.103 -0.777311 446.363 -0.777311C483.623 -0.777311 520.829 -0.777311 557.981 -0.777311C595.133 -0.777311 632.23 -0.777311 669.382 -0.777311C706.534 -0.777311 743.74 -0.777311 762.397 -0.777311H781V46.64Z" fill="#5D98E9"/>
<path d="M81.29 75.63C78.56 75.63 75.965 74.85 73.505 73.29L72.11 75H69.23V41.16L75.26 40.71V49.89C77.3 49.05 79.31 48.63 81.29 48.63C88.19 48.63 91.64 53.13 91.64 62.13C91.64 71.13 88.19 75.63 81.29 75.63ZM79.625 53.265C78.185 53.265 76.73 53.565 75.26 54.165V69.96C76.55 70.65 77.96 70.995 79.49 70.995C83.57 70.995 85.61 68.04 85.61 62.13C85.61 56.22 83.615 53.265 79.625 53.265ZM103.457 75.63C98.1768 75.63 95.5368 72.9 95.5368 67.44V49.26L101.567 49.26V66.45C101.567 68.01 101.867 69.165 102.467 69.915C103.097 70.635 104.132 70.995 105.572 70.995C107.612 70.995 109.547 70.035 111.377 68.115V49.26H117.407V75H113.492L111.782 71.895C109.442 74.385 106.667 75.63 103.457 75.63ZM130.445 75.63C124.655 75.63 121.76 71.13 121.76 62.13C121.76 53.13 125.27 48.63 132.29 48.63C134.27 48.63 136.22 48.99 138.14 49.71V41.16L144.17 40.71V75H140.255L138.59 71.805C136.1 74.355 133.385 75.63 130.445 75.63ZM132.83 70.995C134.69 70.995 136.46 70.035 138.14 68.115V54.165C136.67 53.565 135.23 53.265 133.82 53.265C131.66 53.265 130.115 54.015 129.185 55.515C128.255 57.015 127.79 59.22 127.79 62.13C127.79 68.04 129.47 70.995 132.83 70.995ZM168.091 64.335C167.401 65.295 166.351 66.06 164.941 66.63C163.531 67.17 161.866 67.44 159.946 67.44C158.056 67.44 156.481 67.215 155.221 66.765L153.961 68.115C153.451 68.625 153.196 69.12 153.196 69.6C153.196 70.32 153.691 70.68 154.681 70.68H164.266C166.636 70.68 168.496 71.325 169.846 72.615C171.226 73.905 171.916 75.42 171.916 77.16C171.916 78.9 171.556 80.28 170.836 81.3C170.116 82.32 169.081 83.07 167.731 83.55C165.451 84.36 162.526 84.765 158.956 84.765C155.416 84.765 152.686 84.33 150.766 83.46C148.846 82.62 147.886 81.165 147.886 79.095C147.886 78.105 148.171 77.205 148.741 76.395C149.311 75.615 150.016 75.015 150.856 74.595C149.026 74.025 148.111 72.69 148.111 70.59C148.111 69.21 148.651 67.935 149.731 66.765L151.801 64.605C150.391 62.985 149.686 60.795 149.686 58.035C149.686 55.605 150.346 53.505 151.666 51.735C153.166 49.665 155.896 48.63 159.856 48.63C161.566 48.63 163.051 48.84 164.311 49.26L171.826 49.26V52.815H168.856C169.666 54.285 170.071 55.83 170.071 57.45C170.071 59.04 169.921 60.345 169.621 61.365C169.321 62.385 168.811 63.375 168.091 64.335ZM159.856 52.635C156.916 52.635 155.446 54.435 155.446 58.035C155.446 61.635 156.916 63.435 159.856 63.435C162.826 63.435 164.311 61.635 164.311 58.035C164.311 54.435 162.826 52.635 159.856 52.635ZM153.376 77.745C153.376 78.825 153.856 79.515 154.816 79.815C155.806 80.115 157.426 80.265 159.676 80.265C161.926 80.265 163.516 80.085 164.446 79.725C165.406 79.395 165.886 78.66 165.886 77.52C165.886 75.84 164.716 75 162.376 75H154.681C153.811 75.78 153.376 76.695 153.376 77.745ZM184.552 75.63C180.412 75.63 177.457 74.52 175.687 72.3C173.917 70.05 173.032 66.66 173.032 62.13C173.032 53.13 176.812 48.63 184.372 48.63C188.722 48.63 191.692 49.98 193.282 52.68C194.662 54.99 195.352 57.99 195.352 61.68V63.3H178.882C178.912 66.12 179.377 68.115 180.277 69.285C181.177 70.425 182.662 70.995 184.732 70.995C188.062 70.995 189.832 69.795 190.042 67.395L194.992 67.575C194.512 72.945 191.032 75.63 184.552 75.63ZM188.017 54.75C187.267 53.76 186.037 53.265 184.327 53.265C182.617 53.265 181.357 53.745 180.547 54.705C179.767 55.635 179.257 57.135 179.017 59.205H189.412C189.232 57.195 188.767 55.71 188.017 54.75ZM195.674 53.175V49.26H199.814V44.58L205.844 43.05V49.26H210.749V53.175H205.844V67.71C205.844 69 206.024 69.915 206.384 70.455C206.774 70.995 207.329 71.265 208.049 71.265C208.799 71.265 209.609 71.145 210.479 70.905L211.244 74.64C209.474 75.3 207.884 75.63 206.474 75.63C205.094 75.63 203.984 75.465 203.144 75.135C202.304 74.805 201.674 74.43 201.254 74.01C200.834 73.56 200.519 72.96 200.309 72.21C199.979 71.16 199.814 69.855 199.814 68.295V53.175H195.674ZM220.244 75H214.214V41.16L220.244 40.35V75ZM234.281 85.665L228.926 84.855L232.571 75.36L223.166 49.26H229.241L235.406 67.17L240.986 49.26H247.151L234.281 85.665Z" fill="#F4F9FF"/>
</g>
<defs>
<clipPath id="clip0_57_398">
<rect x="781" y="583" width="781" height="583" transform="rotate(-180 781 583)" fill="white"/>
</clipPath>
</defs>
</svg>
