<svg width="768" height="477" viewBox="0 0 768 477" fill="none" xmlns="http://www.w3.org/2000/svg">
<g clip-path="url(#clip0_80_750)">
<path d="M768 384L749.7 379.5C731.3 375 694.7 366 658.2 372C621.7 378 585.3 399 548.8 392.7C512.3 386.3 475.7 352.7 439 336.8C402.3 321 365.7 323 329 328.3C292.3 333.7 255.7 342.3 219.2 351.8C182.7 361.3 146.3 371.7 109.8 377.3C73.3 383 36.7 384 18.3 384.5L0 385V-2.00009H18.3C36.7 -2.00009 73.3 -2.00009 109.8 -2.00009C146.3 -2.00009 182.7 -2.00009 219.2 -2.00009C255.7 -2.00009 292.3 -2.00009 329 -2.00009C365.7 -2.00009 402.3 -2.00009 439 -2.00009C475.7 -2.00009 512.3 -2.00009 548.8 -2.00009C585.3 -2.00009 621.7 -2.00009 658.2 -2.00009C694.7 -2.00009 731.3 -2.00009 749.7 -2.00009H768V384Z" fill="#D1CEF8"/>
<path d="M768 354L749.7 353.5C731.3 353 694.7 352 658.2 350.8C621.7 349.7 585.3 348.3 548.8 352.5C512.3 356.7 475.7 366.3 439 367.2C402.3 368 365.7 360 329 347.7C292.3 335.3 255.7 318.7 219.2 306.5C182.7 294.3 146.3 286.7 109.8 295.2C73.3 303.7 36.7 328.3 18.3 340.7L0 353V-2.00009H18.3C36.7 -2.00009 73.3 -2.00009 109.8 -2.00009C146.3 -2.00009 182.7 -2.00009 219.2 -2.00009C255.7 -2.00009 292.3 -2.00009 329 -2.00009C365.7 -2.00009 402.3 -2.00009 439 -2.00009C475.7 -2.00009 512.3 -2.00009 548.8 -2.00009C585.3 -2.00009 621.7 -2.00009 658.2 -2.00009C694.7 -2.00009 731.3 -2.00009 749.7 -2.00009H768V354Z" fill="#C5C5F6"/>
<path d="M768 277L749.7 274C731.3 271 694.7 265 658.2 264.5C621.7 264 585.3 269 548.8 279.3C512.3 289.7 475.7 305.3 439 298C402.3 290.7 365.7 260.3 329 246.7C292.3 233 255.7 236 219.2 239.8C182.7 243.7 146.3 248.3 109.8 249.5C73.3 250.7 36.7 248.3 18.3 247.2L0 246V-1.99991H18.3C36.7 -1.99991 73.3 -1.99991 109.8 -1.99991C146.3 -1.99991 182.7 -1.99991 219.2 -1.99991C255.7 -1.99991 292.3 -1.99991 329 -1.99991C365.7 -1.99991 402.3 -1.99991 439 -1.99991C475.7 -1.99991 512.3 -1.99991 548.8 -1.99991C585.3 -1.99991 621.7 -1.99991 658.2 -1.99991C694.7 -1.99991 731.3 -1.99991 749.7 -1.99991H768V277Z" fill="#B8BDF4"/>
<path d="M768 208L749.7 204.8C731.3 201.7 694.7 195.3 658.2 195C621.7 194.7 585.3 200.3 548.8 200.7C512.3 201 475.7 196 439 193.2C402.3 190.3 365.7 189.7 329 199.5C292.3 209.3 255.7 229.7 219.2 235.2C182.7 240.7 146.3 231.3 109.8 221.2C73.3 211 36.7 200 18.3 194.5L0 189V-1.99991H18.3C36.7 -1.99991 73.3 -1.99991 109.8 -1.99991C146.3 -1.99991 182.7 -1.99991 219.2 -1.99991C255.7 -1.99991 292.3 -1.99991 329 -1.99991C365.7 -1.99991 402.3 -1.99991 439 -1.99991C475.7 -1.99991 512.3 -1.99991 548.8 -1.99991C585.3 -1.99991 621.7 -1.99991 658.2 -1.99991C694.7 -1.99991 731.3 -1.99991 749.7 -1.99991H768V208Z" fill="#AAB5F2"/>
<path d="M768 143L749.7 144.8C731.3 146.7 694.7 150.3 658.2 165.3C621.7 180.3 585.3 206.7 548.8 210C512.3 213.3 475.7 193.7 439 184.8C402.3 176 365.7 178 329 187.8C292.3 197.7 255.7 215.3 219.2 215.3C182.7 215.3 146.3 197.7 109.8 188.8C73.3 180 36.7 180 18.3 180H0V-1.99994H18.3C36.7 -1.99994 73.3 -1.99994 109.8 -1.99994C146.3 -1.99994 182.7 -1.99994 219.2 -1.99994C255.7 -1.99994 292.3 -1.99994 329 -1.99994C365.7 -1.99994 402.3 -1.99994 439 -1.99994C475.7 -1.99994 512.3 -1.99994 548.8 -1.99994C585.3 -1.99994 621.7 -1.99994 658.2 -1.99994C694.7 -1.99994 731.3 -1.99994 749.7 -1.99994H768V143Z" fill="#9AADF0"/>
<path d="M768 175L749.7 172.8C731.3 170.7 694.7 166.3 658.2 162.3C621.7 158.3 585.3 154.7 548.8 147.8C512.3 141 475.7 131 439 133.2C402.3 135.3 365.7 149.7 329 153.8C292.3 158 255.7 152 219.2 151C182.7 150 146.3 154 109.8 151.8C73.3 149.7 36.7 141.3 18.3 137.2L0 133V-2H18.3C36.7 -2 73.3 -2 109.8 -2C146.3 -2 182.7 -2 219.2 -2C255.7 -2 292.3 -2 329 -2C365.7 -2 402.3 -2 439 -2C475.7 -2 512.3 -2 548.8 -2C585.3 -2 621.7 -2 658.2 -2C694.7 -2 731.3 -2 749.7 -2H768V175Z" fill="#88A5EE"/>
<path d="M768 66.0001L749.7 76.0001C731.3 86.0001 694.7 106 658.2 110C621.7 114 585.3 102 548.8 94.7001C512.3 87.3001 475.7 84.7001 439 90.8001C402.3 97.0001 365.7 112 329 109.3C292.3 106.7 255.7 86.3001 219.2 80.2001C182.7 74.0001 146.3 82.0001 109.8 82.2001C73.3 82.3001 36.7 74.7001 18.3 70.8001L0 67.0001V-1.99993L18.3 -1.99993C36.7 -1.99993 73.3 -1.99993 109.8 -1.99993C146.3 -1.99993 182.7 -1.99993 219.2 -1.99993C255.7 -1.99993 292.3 -1.99993 329 -1.99993C365.7 -1.99993 402.3 -1.99993 439 -1.99993C475.7 -1.99993 512.3 -1.99993 548.8 -1.99993C585.3 -1.99993 621.7 -1.99993 658.2 -1.99993C694.7 -1.99993 731.3 -1.99993 749.7 -1.99993H768V66.0001Z" fill="#759EEB"/>
<path d="M768 42L749.7 41.7001C731.3 41.3001 694.7 40.7 658.2 46.5C621.7 52.3 585.3 64.7 548.8 69.3C512.3 74 475.7 71.0001 439 66.7001C402.3 62.3001 365.7 56.7 329 52.8C292.3 49 255.7 47.0001 219.2 48.2001C182.7 49.3001 146.3 53.7001 109.8 55.7001C73.3 57.7001 36.7 57.3001 18.3 57.2001L0 57V-1.99995L18.3 -1.99995C36.7 -1.99995 73.3 -1.99995 109.8 -1.99995C146.3 -1.99995 182.7 -1.99995 219.2 -1.99995C255.7 -1.99995 292.3 -1.99995 329 -1.99995C365.7 -1.99995 402.3 -1.99995 439 -1.99995C475.7 -1.99995 512.3 -1.99995 548.8 -1.99995C585.3 -1.99995 621.7 -1.99995 658.2 -1.99995C694.7 -1.99995 731.3 -1.99995 749.7 -1.99995H768V42Z" fill="#5D97E9"/>
<path d="M81.29 82.63C78.56 82.63 75.965 81.85 73.505 80.29L72.11 82H69.23V48.16L75.26 47.71V56.89C77.3 56.05 79.31 55.63 81.29 55.63C88.19 55.63 91.64 60.13 91.64 69.13C91.64 78.13 88.19 82.63 81.29 82.63ZM79.625 60.265C78.185 60.265 76.73 60.565 75.26 61.165V76.96C76.55 77.65 77.96 77.995 79.49 77.995C83.57 77.995 85.61 75.04 85.61 69.13C85.61 63.22 83.615 60.265 79.625 60.265ZM103.457 82.63C98.1768 82.63 95.5368 79.9 95.5368 74.44V56.26H101.567V73.45C101.567 75.01 101.867 76.165 102.467 76.915C103.097 77.635 104.132 77.995 105.572 77.995C107.612 77.995 109.547 77.035 111.377 75.115V56.26H117.407V82H113.492L111.782 78.895C109.442 81.385 106.667 82.63 103.457 82.63ZM130.445 82.63C124.655 82.63 121.76 78.13 121.76 69.13C121.76 60.13 125.27 55.63 132.29 55.63C134.27 55.63 136.22 55.99 138.14 56.71V48.16L144.17 47.71V82H140.255L138.59 78.805C136.1 81.355 133.385 82.63 130.445 82.63ZM132.83 77.995C134.69 77.995 136.46 77.035 138.14 75.115V61.165C136.67 60.565 135.23 60.265 133.82 60.265C131.66 60.265 130.115 61.015 129.185 62.515C128.255 64.015 127.79 66.22 127.79 69.13C127.79 75.04 129.47 77.995 132.83 77.995ZM168.091 71.335C167.401 72.295 166.351 73.06 164.941 73.63C163.531 74.17 161.866 74.44 159.946 74.44C158.056 74.44 156.481 74.215 155.221 73.765L153.961 75.115C153.451 75.625 153.196 76.12 153.196 76.6C153.196 77.32 153.691 77.68 154.681 77.68L164.266 77.68C166.636 77.68 168.496 78.325 169.846 79.615C171.226 80.905 171.916 82.42 171.916 84.16C171.916 85.9 171.556 87.28 170.836 88.3C170.116 89.32 169.081 90.07 167.731 90.55C165.451 91.36 162.526 91.765 158.956 91.765C155.416 91.765 152.686 91.33 150.766 90.46C148.846 89.62 147.886 88.165 147.886 86.095C147.886 85.105 148.171 84.205 148.741 83.395C149.311 82.615 150.016 82.015 150.856 81.595C149.026 81.025 148.111 79.69 148.111 77.59C148.111 76.21 148.651 74.935 149.731 73.765L151.801 71.605C150.391 69.985 149.686 67.795 149.686 65.035C149.686 62.605 150.346 60.505 151.666 58.735C153.166 56.665 155.896 55.63 159.856 55.63C161.566 55.63 163.051 55.84 164.311 56.26H171.826V59.815H168.856C169.666 61.285 170.071 62.83 170.071 64.45C170.071 66.04 169.921 67.345 169.621 68.365C169.321 69.385 168.811 70.375 168.091 71.335ZM159.856 59.635C156.916 59.635 155.446 61.435 155.446 65.035C155.446 68.635 156.916 70.435 159.856 70.435C162.826 70.435 164.311 68.635 164.311 65.035C164.311 61.435 162.826 59.635 159.856 59.635ZM153.376 84.745C153.376 85.825 153.856 86.515 154.816 86.815C155.806 87.115 157.426 87.265 159.676 87.265C161.926 87.265 163.516 87.085 164.446 86.725C165.406 86.395 165.886 85.66 165.886 84.52C165.886 82.84 164.716 82 162.376 82H154.681C153.811 82.78 153.376 83.695 153.376 84.745ZM184.552 82.63C180.412 82.63 177.457 81.52 175.687 79.3C173.917 77.05 173.032 73.66 173.032 69.13C173.032 60.13 176.812 55.63 184.372 55.63C188.722 55.63 191.692 56.98 193.282 59.68C194.662 61.99 195.352 64.99 195.352 68.68V70.3H178.882C178.912 73.12 179.377 75.115 180.277 76.285C181.177 77.425 182.662 77.995 184.732 77.995C188.062 77.995 189.832 76.795 190.042 74.395L194.992 74.575C194.512 79.945 191.032 82.63 184.552 82.63ZM188.017 61.75C187.267 60.76 186.037 60.265 184.327 60.265C182.617 60.265 181.357 60.745 180.547 61.705C179.767 62.635 179.257 64.135 179.017 66.205H189.412C189.232 64.195 188.767 62.71 188.017 61.75ZM195.674 60.175V56.26H199.814V51.58L205.844 50.05V56.26H210.749V60.175H205.844V74.71C205.844 76 206.024 76.915 206.384 77.455C206.774 77.995 207.329 78.265 208.049 78.265C208.799 78.265 209.609 78.145 210.479 77.905L211.244 81.64C209.474 82.3 207.884 82.63 206.474 82.63C205.094 82.63 203.984 82.465 203.144 82.135C202.304 81.805 201.674 81.43 201.254 81.01C200.834 80.56 200.519 79.96 200.309 79.21C199.979 78.16 199.814 76.855 199.814 75.295V60.175H195.674ZM220.244 82H214.214V48.16L220.244 47.35V82ZM234.281 92.665L228.926 91.855L232.571 82.36L223.166 56.26H229.241L235.406 74.17L240.986 56.26H247.151L234.281 92.665Z" fill="#F4F9FF"/>
</g>
<defs>
<clipPath id="clip0_80_750">
<rect width="768" height="478" fill="white" transform="matrix(-1 0 0 -1 768 477)"/>
</clipPath>
</defs>
</svg>
