<svg width="34" height="34" viewBox="0 0 34 34" fill="none" xmlns="http://www.w3.org/2000/svg">
<path d="M14.4439 0C10.4409 0 6.85053 1.65073 4.25063 4.25063L16.5073 16.5073V0.123805C15.847 0.0412682 15.1454 0 14.4439 0ZM20.6341 4.37443V18.4469L9.40916 29.6719C11.9265 31.7353 15.0629 33.0146 18.5707 33.0146C26.5355 33.0146 33.0146 26.5355 33.0146 18.5707C33.0146 11.3075 27.6085 5.40614 20.6341 4.37443ZM3.75541 9.78057C1.44439 12.0091 0 15.1042 0 18.5707C0 22.5325 1.89834 25.9577 4.78712 28.2275L13.5773 19.4373L3.75541 9.78057Z" fill="#A5C9CA"/>
</svg>
